<svg width="12" height="12" viewBox="0 0 12 12" fill="none" xmlns="http://www.w3.org/2000/svg">
<path d="M10.6763 5.33328H6.67323V1.33026C6.67323 1.15331 6.60294 0.983614 6.47782 0.858496C6.35271 0.733377 6.18301 0.663086 6.00606 0.663086C5.82912 0.663086 5.65942 0.733377 5.5343 0.858496C5.40918 0.983614 5.33889 1.15331 5.33889 1.33026V5.33328H1.33587C1.15893 5.33328 0.98923 5.40357 0.864111 5.52869C0.738992 5.65381 0.668701 5.8235 0.668701 6.00045C0.668701 6.17739 0.738992 6.34709 0.864111 6.47221C0.98923 6.59733 1.15893 6.66762 1.33587 6.66762H5.33889V10.6706C5.33889 10.8476 5.40918 11.0173 5.5343 11.1424C5.65942 11.2675 5.82912 11.3378 6.00606 11.3378C6.18301 11.3378 6.35271 11.2675 6.47782 11.1424C6.60294 11.0173 6.67323 10.8476 6.67323 10.6706V6.66762H10.6763C10.8532 6.66762 11.0229 6.59733 11.148 6.47221C11.2731 6.34709 11.3434 6.17739 11.3434 6.00045C11.3434 5.8235 11.2731 5.65381 11.148 5.52869C11.0229 5.40357 10.8532 5.33328 10.6763 5.33328Z" fill="#1C85E7"/>
</svg>
