<svg width="17" height="17" viewBox="0 0 17 17" fill="none" xmlns="http://www.w3.org/2000/svg">
<path d="M15.5046 7.00707H9.5016V1.00404C9.5016 0.738694 9.39619 0.484212 9.20856 0.296581C9.02093 0.10895 8.76645 0.00354004 8.5011 0.00354004C8.23575 0.00354004 7.98127 0.10895 7.79364 0.296581C7.60601 0.484212 7.5006 0.738694 7.5006 1.00404V7.00707H1.49757C1.23222 7.00707 0.977742 7.11248 0.790111 7.30011C0.60248 7.48774 0.49707 7.74222 0.49707 8.00757C0.49707 8.27292 0.60248 8.5274 0.790111 8.71503C0.977742 8.90266 1.23222 9.00807 1.49757 9.00807H7.5006V15.0111C7.5006 15.2764 7.60601 15.5309 7.79364 15.7186C7.98127 15.9062 8.23575 16.0116 8.5011 16.0116C8.76645 16.0116 9.02093 15.9062 9.20856 15.7186C9.39619 15.5309 9.5016 15.2764 9.5016 15.0111V9.00807H15.5046C15.77 9.00807 16.0245 8.90266 16.2121 8.71503C16.3997 8.5274 16.5051 8.27292 16.5051 8.00757C16.5051 7.74222 16.3997 7.48774 16.2121 7.30011C16.0245 7.11248 15.77 7.00707 15.5046 7.00707Z" fill="white"/>
</svg>
