<svg width="14" height="23" viewBox="0 0 14 23" fill="none" xmlns="http://www.w3.org/2000/svg">
<path d="M0.926619 11.4939C0.939174 11.9333 1.1024 12.31 1.44141 12.649L11.2098 22.204C11.4986 22.4802 11.8376 22.6309 12.252 22.6309C13.0932 22.6309 13.7461 21.978 13.7461 21.1367C13.7461 20.7349 13.5829 20.3583 13.2941 20.0695L4.50502 11.4939L13.2941 2.91825C13.5829 2.62946 13.7461 2.26534 13.7461 1.851C13.7461 1.00976 13.0932 0.356861 12.252 0.356861C11.8502 0.356861 11.4986 0.50753 11.2098 0.783758L1.44141 10.3513C1.08984 10.6777 0.926619 11.0544 0.926619 11.4939Z" fill="#1D1D1D"/>
</svg>
