<svg width="16" height="16" viewBox="0 0 16 16" fill="none" xmlns="http://www.w3.org/2000/svg">
<path d="M8.16707 7.99712C7.40673 7.25321 6.64466 3.94567 6.63712 3.91214L6.49213 3.27734L6.34743 3.91214C6.3396 3.94567 5.5781 7.25264 4.81748 7.99712C4.05744 8.74274 0.681749 9.48949 0.647821 9.49688L0 9.63896L0.647821 9.78103C0.681749 9.78842 4.05744 10.5352 4.81748 11.2797C5.57752 12.0247 6.3396 15.3328 6.34743 15.3658L6.49213 16.0006L6.63712 15.3658C6.64466 15.3328 7.40673 12.0247 8.16707 11.2797C8.92682 10.5352 12.3028 9.78842 12.3367 9.78103L12.9845 9.63896L12.337 9.49688C12.3028 9.48949 8.9274 8.74274 8.16707 7.99712Z" fill="#7C7C7C"/>
<path d="M15.3509 4.5356C14.9028 4.43728 14.1245 4.21564 13.9436 4.03833C13.7626 3.86102 13.5359 3.09835 13.4355 2.65905L13.2908 2.02539L13.1461 2.65905C13.0455 3.09835 12.819 3.86102 12.6378 4.03833C12.4571 4.21564 11.6788 4.43728 11.2308 4.5356L10.5833 4.6771L11.2305 4.81975C11.6788 4.91807 12.4571 5.13971 12.6381 5.31702C12.819 5.49433 13.0455 6.25756 13.1461 6.69686L13.2908 7.33109L13.4355 6.69686C13.5359 6.25756 13.7626 5.49433 13.9433 5.31702C14.1242 5.14027 14.9028 4.91807 15.3511 4.81975L15.9984 4.6771L15.3509 4.5356Z" fill="#7C7C7C"/>
<path d="M1.43047 2.12262C1.50384 2.1948 1.61925 2.54544 1.68421 2.82959L1.8292 3.46269L1.97419 2.82959C2.03914 2.54544 2.15456 2.1948 2.22821 2.12262C2.30187 2.05045 2.65971 1.93679 2.94969 1.8737L3.59693 1.73106L2.9494 1.58955C2.65971 1.5259 2.30129 1.41281 2.22821 1.34177C2.15456 1.26903 2.03914 0.917814 1.97419 0.633661L1.8292 0L1.68421 0.633661C1.61925 0.917814 1.50384 1.26903 1.43076 1.3412C1.3571 1.41281 0.998686 1.5259 0.708704 1.58955L0.0603027 1.73163L0.708704 1.8737C0.998686 1.93679 1.35652 2.05045 1.43047 2.12262Z" fill="#7C7C7C"/>
</svg>
