<svg width="24" height="24" viewBox="0 0 24 24" fill="none" xmlns="http://www.w3.org/2000/svg">
<path d="M12.2506 11.9937C11.1101 10.8779 9.967 5.91655 9.95569 5.86626L9.7382 4.91406L9.52115 5.86626C9.5094 5.91655 8.36716 10.877 7.22622 11.9937C6.08616 13.1122 1.02262 14.2323 0.971732 14.2434L0 14.4565L0.971732 14.6696C1.02262 14.6807 6.08616 15.8008 7.22622 16.9175C8.36629 18.0351 9.5094 22.9973 9.52115 23.0467L9.7382 23.9989L9.95569 23.0467C9.967 22.9973 11.1101 18.0351 12.2506 16.9175C13.3902 15.8008 18.4542 14.6807 18.5051 14.6696L19.4768 14.4565L18.5055 14.2434C18.4542 14.2323 13.3911 13.1122 12.2506 11.9937Z" fill="#D63941"/>
<path d="M23.0279 6.79949C22.3558 6.65202 21.1884 6.31956 20.9169 6.05359C20.6455 5.78762 20.3054 4.64362 20.1549 3.98467L19.9378 3.03418L19.7208 3.98467C19.5698 4.64362 19.2301 5.78762 18.9583 6.05359C18.6873 6.31956 17.5198 6.65202 16.8478 6.79949L15.8765 7.01175L16.8473 7.22572C17.5198 7.3732 18.6873 7.70565 18.9587 7.97162C19.2301 8.23759 19.5698 9.38244 19.7208 10.0414L19.9378 10.9927L20.1549 10.0414C20.3054 9.38244 20.6455 8.23759 20.9165 7.97162C21.1879 7.70651 22.3558 7.3732 23.0283 7.22572L23.9992 7.01175L23.0279 6.79949Z" fill="#D63941"/>
<path d="M2.14485 3.18393C2.2549 3.2922 2.42802 3.81816 2.52545 4.24439L2.74294 5.19403L2.96043 4.24439C3.05786 3.81816 3.23098 3.2922 3.34147 3.18393C3.45195 3.07567 3.98871 2.90518 4.42368 2.81056L5.39454 2.59659L4.42325 2.38433C3.98871 2.28885 3.45108 2.11921 3.34147 2.01266C3.23098 1.90354 3.05786 1.37672 2.96043 0.950492L2.74294 0L2.52545 0.950492C2.42802 1.37672 2.2549 1.90354 2.14529 2.0118C2.0348 2.11921 1.49718 2.28885 1.0622 2.38433L0.0895996 2.59744L1.0622 2.81056C1.49718 2.90518 2.03393 3.07567 2.14485 3.18393Z" fill="#D63941"/>
</svg>
