<svg width="41" height="41" viewBox="0 0 41 41" fill="none" xmlns="http://www.w3.org/2000/svg">
<path d="M12.9067 30.3964L20.1667 23.1364L27.4267 30.3964L30.25 27.573L22.99 20.313L30.25 13.053L27.4267 10.2297L20.1667 17.4897L12.9067 10.2297L10.0833 13.053L17.3433 20.313L10.0833 27.573L12.9067 30.3964ZM20.1667 40.4797C17.3769 40.4797 14.7553 39.9503 12.3017 38.8916C9.84806 37.8328 7.71375 36.396 5.89875 34.581C4.08375 32.7659 2.64688 30.6316 1.58813 28.178C0.529375 25.7244 0 23.1028 0 20.313C0 17.5233 0.529375 14.9016 1.58813 12.448C2.64688 9.99442 4.08375 7.86011 5.89875 6.04511C7.71375 4.23011 9.84806 2.79324 12.3017 1.73449C14.7553 0.675737 17.3769 0.146362 20.1667 0.146362C22.9564 0.146362 25.5781 0.675737 28.0317 1.73449C30.4853 2.79324 32.6196 4.23011 34.4346 6.04511C36.2496 7.86011 37.6865 9.99442 38.7452 12.448C39.804 14.9016 40.3333 17.5233 40.3333 20.313C40.3333 23.1028 39.804 25.7244 38.7452 28.178C37.6865 30.6316 36.2496 32.7659 34.4346 34.581C32.6196 36.396 30.4853 37.8328 28.0317 38.8916C25.5781 39.9503 22.9564 40.4797 20.1667 40.4797Z" fill="#D63941"/>
</svg>
