<svg width="12" height="12" viewBox="0 0 12 12" fill="none" xmlns="http://www.w3.org/2000/svg">
<path d="M11.6569 10.2429L7.41421 6.00023L11.6569 1.75759C11.8444 1.57006 11.9497 1.3157 11.9497 1.05048C11.9497 0.785268 11.8444 0.530915 11.6569 0.343378C11.4693 0.155842 11.215 0.0504853 10.9497 0.0504854C10.6845 0.0504855 10.4302 0.155842 10.2426 0.343378L6 4.58602L1.75736 0.343378C1.56982 0.155842 1.31547 0.0504851 1.05025 0.050485C0.785035 0.0504849 0.530682 0.155841 0.343145 0.343378C0.155609 0.530914 0.0502523 0.785268 0.0502524 1.05048C0.0502525 1.3157 0.155609 1.57005 0.343145 1.75759L4.58579 6.00023L0.343145 10.2429C0.155609 10.4304 0.050251 10.6848 0.050251 10.95C0.0502509 11.2152 0.155609 11.4696 0.343145 11.6571C0.530682 11.8446 0.785034 11.95 1.05025 11.95C1.31547 11.95 1.56982 11.8446 1.75736 11.6571L6 7.41445L10.2426 11.6571C10.4302 11.8446 10.6845 11.95 10.9497 11.95C11.215 11.95 11.4693 11.8446 11.6569 11.6571C11.8444 11.4696 11.9497 11.2152 11.9497 10.95C11.9497 10.6848 11.8444 10.4304 11.6569 10.2429Z" fill="#6F6F6F"/>
</svg>
