<svg width="32" height="32" viewBox="0 0 32 32" fill="none" xmlns="http://www.w3.org/2000/svg">
<rect x="0.5" y="0.5" width="31" height="31" rx="3.5" stroke="#E5E5E5"/>
<path d="M26 10V22C26 22.55 25.8042 23.0208 25.4125 23.4125C25.0208 23.8042 24.55 24 24 24H8C7.45 24 6.97917 23.8042 6.5875 23.4125C6.19583 23.0208 6 22.55 6 22V10C6 9.45 6.19583 8.97917 6.5875 8.5875C6.97917 8.19583 7.45 8 8 8H24C24.55 8 25.0208 8.19583 25.4125 8.5875C25.8042 8.97917 26 9.45 26 10ZM8 12H24V10H8V12ZM8 16V22H24V16H8Z" fill="#969696"/>
</svg>
