<svg width="14" height="8" viewBox="0 0 14 8" fill="none" xmlns="http://www.w3.org/2000/svg">
<path d="M7.29632 7.84403C7.55999 7.83649 7.78599 7.73856 7.9894 7.53516L13.7224 1.67411C13.8881 1.50084 13.9785 1.29743 13.9785 1.04883C13.9785 0.544085 13.5868 0.152344 13.082 0.152344C12.841 0.152344 12.615 0.250279 12.4417 0.423549L7.29632 5.69699L2.15095 0.423549C1.97768 0.250278 1.75921 0.152343 1.5106 0.152343C1.00586 0.152343 0.614119 0.544084 0.614119 1.04883C0.614119 1.2899 0.70452 1.50084 0.870256 1.67411L6.61077 7.53516C6.80664 7.74609 7.03264 7.84403 7.29632 7.84403Z" fill="#1D1D1D"/>
</svg>
