<svg width="9" height="14" viewBox="0 0 9 14" fill="none" xmlns="http://www.w3.org/2000/svg">
<path d="M8.34403 7.29632C8.3365 7.55999 8.23856 7.78599 8.03516 7.9894L2.17411 13.7224C2.00084 13.8881 1.79743 13.9785 1.54883 13.9785C1.04408 13.9785 0.652344 13.5868 0.652344 13.082C0.652344 12.841 0.750279 12.615 0.923549 12.4417L6.19699 7.29632L0.92355 2.15095C0.75028 1.97768 0.652345 1.75921 0.652345 1.5106C0.652345 1.00586 1.04409 0.614119 1.54883 0.614119C1.7899 0.614119 2.00084 0.70452 2.17411 0.870257L8.03516 6.61077C8.24609 6.80664 8.34403 7.03265 8.34403 7.29632Z" fill="#1C85E7"/>
</svg>
