<svg width="12" height="14" viewBox="0 0 12 14" fill="none" xmlns="http://www.w3.org/2000/svg">
<path d="M3.33329 6.99967V5.66634H8.66663V6.99967H3.33329ZM3.33329 4.33301V2.99967H8.66663V4.33301H3.33329ZM1.99996 8.33301H6.99996C7.32218 8.33301 7.62218 8.40245 7.89996 8.54134C8.17774 8.68023 8.41107 8.87745 8.59996 9.13301L9.99996 10.9663V1.66634H1.99996V8.33301ZM1.99996 12.333H9.36663L7.54996 9.94967C7.48329 9.86079 7.40274 9.79134 7.30829 9.74134C7.21385 9.69134 7.11107 9.66634 6.99996 9.66634H1.99996V12.333ZM9.99996 13.6663H1.99996C1.63329 13.6663 1.3194 13.5358 1.05829 13.2747C0.797182 13.0136 0.666626 12.6997 0.666626 12.333V1.66634C0.666626 1.29967 0.797182 0.985786 1.05829 0.724674C1.3194 0.463563 1.63329 0.333008 1.99996 0.333008H9.99996C10.3666 0.333008 10.6805 0.463563 10.9416 0.724674C11.2027 0.985786 11.3333 1.29967 11.3333 1.66634V12.333C11.3333 12.6997 11.2027 13.0136 10.9416 13.2747C10.6805 13.5358 10.3666 13.6663 9.99996 13.6663Z" fill="#FCFCFC"/>
</svg>
