<svg width="12" height="12" viewBox="0 0 12 12" fill="none" xmlns="http://www.w3.org/2000/svg">
<path d="M7.625 2.5C7.45 2.5 7.30208 2.43958 7.18125 2.31875C7.06042 2.19792 7 2.05 7 1.875C7 1.7 7.06042 1.55208 7.18125 1.43125C7.30208 1.31042 7.45 1.25 7.625 1.25C7.8 1.25 7.94792 1.31042 8.06875 1.43125C8.18958 1.55208 8.25 1.7 8.25 1.875C8.25 2.05 8.18958 2.19792 8.06875 2.31875C7.94792 2.43958 7.8 2.5 7.625 2.5ZM7.625 10.75C7.45 10.75 7.30208 10.6896 7.18125 10.5688C7.06042 10.4479 7 10.3 7 10.125C7 9.95 7.06042 9.80208 7.18125 9.68125C7.30208 9.56042 7.45 9.5 7.625 9.5C7.8 9.5 7.94792 9.56042 8.06875 9.68125C8.18958 9.80208 8.25 9.95 8.25 10.125C8.25 10.3 8.18958 10.4479 8.06875 10.5688C7.94792 10.6896 7.8 10.75 7.625 10.75ZM9.625 4.25C9.45 4.25 9.30208 4.18958 9.18125 4.06875C9.06042 3.94792 9 3.8 9 3.625C9 3.45 9.06042 3.30208 9.18125 3.18125C9.30208 3.06042 9.45 3 9.625 3C9.8 3 9.94792 3.06042 10.0688 3.18125C10.1896 3.30208 10.25 3.45 10.25 3.625C10.25 3.8 10.1896 3.94792 10.0688 4.06875C9.94792 4.18958 9.8 4.25 9.625 4.25ZM9.625 9C9.45 9 9.30208 8.93958 9.18125 8.81875C9.06042 8.69792 9 8.55 9 8.375C9 8.2 9.06042 8.05208 9.18125 7.93125C9.30208 7.81042 9.45 7.75 9.625 7.75C9.8 7.75 9.94792 7.81042 10.0688 7.93125C10.1896 8.05208 10.25 8.2 10.25 8.375C10.25 8.55 10.1896 8.69792 10.0688 8.81875C9.94792 8.93958 9.8 9 9.625 9ZM10.375 6.625C10.2 6.625 10.0521 6.56458 9.93125 6.44375C9.81042 6.32292 9.75 6.175 9.75 6C9.75 5.825 9.81042 5.67708 9.93125 5.55625C10.0521 5.43542 10.2 5.375 10.375 5.375C10.55 5.375 10.6979 5.43542 10.8188 5.55625C10.9396 5.67708 11 5.825 11 6C11 6.175 10.9396 6.32292 10.8188 6.44375C10.6979 6.56458 10.55 6.625 10.375 6.625ZM6 11C5.30833 11 4.65833 10.8688 4.05 10.6063C3.44167 10.3438 2.9125 9.9875 2.4625 9.5375C2.0125 9.0875 1.65625 8.55833 1.39375 7.95C1.13125 7.34167 1 6.69167 1 6C1 5.30833 1.13125 4.65833 1.39375 4.05C1.65625 3.44167 2.0125 2.9125 2.4625 2.4625C2.9125 2.0125 3.44167 1.65625 4.05 1.39375C4.65833 1.13125 5.30833 1 6 1V2C4.88333 2 3.9375 2.3875 3.1625 3.1625C2.3875 3.9375 2 4.88333 2 6C2 7.11667 2.3875 8.0625 3.1625 8.8375C3.9375 9.6125 4.88333 10 6 10V11ZM6 7C5.725 7 5.48958 6.90208 5.29375 6.70625C5.09792 6.51042 5 6.275 5 6C5 5.95833 5.00208 5.91458 5.00625 5.86875C5.01042 5.82292 5.02083 5.77917 5.0375 5.7375L4 4.7L4.7 4L5.7375 5.0375C5.77083 5.02917 5.85833 5.01667 6 5C6.275 5 6.51042 5.09792 6.70625 5.29375C6.90208 5.48958 7 5.725 7 6C7 6.275 6.90208 6.51042 6.70625 6.70625C6.51042 6.90208 6.275 7 6 7Z" fill="#007B2D"/>
</svg>
