<svg width="14" height="8" viewBox="0 0 14 8" fill="none" xmlns="http://www.w3.org/2000/svg">
<path d="M6.70368 0.155971C6.44001 0.163505 6.21401 0.26144 6.0106 0.464844L0.277623 6.32589C0.111886 6.49916 0.0214843 6.70257 0.0214843 6.95117C0.0214844 7.45592 0.413225 7.84766 0.917969 7.84766C1.15904 7.84766 1.38504 7.74972 1.55831 7.57645L6.70368 2.30301L11.8491 7.57645C12.0223 7.74972 12.2408 7.84766 12.4894 7.84766C12.9941 7.84766 13.3859 7.45591 13.3859 6.95117C13.3859 6.7101 13.2955 6.49916 13.1297 6.32589L7.38923 0.464844C7.19336 0.253906 6.96735 0.155971 6.70368 0.155971Z" fill="white"/>
</svg>
