<svg width="8" height="14" viewBox="0 0 8 14" fill="none" xmlns="http://www.w3.org/2000/svg">
<path d="M7.84403 7.29632C7.8365 7.55999 7.73856 7.78599 7.53516 7.9894L1.67411 13.7224C1.50084 13.8881 1.29743 13.9785 1.04883 13.9785C0.544085 13.9785 0.152344 13.5868 0.152344 13.082C0.152344 12.841 0.250279 12.615 0.423549 12.4417L5.69699 7.29632L0.42355 2.15095C0.25028 1.97768 0.152345 1.75921 0.152345 1.5106C0.152345 1.00586 0.544086 0.614119 1.04883 0.614119C1.2899 0.614119 1.50084 0.70452 1.67411 0.870257L7.53516 6.61077C7.74609 6.80664 7.84403 7.03265 7.84403 7.29632Z" fill="#6F6F6F"/>
</svg>
