<svg width="140" height="140" viewBox="0 0 140 140" fill="none" xmlns="http://www.w3.org/2000/svg">
<path fill-rule="evenodd" clip-rule="evenodd" d="M88.672 140C88.6832 140 88.6945 140 88.7058 140H88.6406C88.6511 140 88.6615 140 88.672 140ZM76.7132 134.464C80.3536 137.127 84.3829 139.985 88.672 140C89.7031 139.996 90.6715 139.801 91.7039 139.479C97.1926 137.608 99.2267 131.581 101.039 126.213L101.089 126.062C101.937 123.587 103.24 119.81 104.283 119.028C105.326 118.247 109.106 118.051 111.583 118.051C111.686 118.048 111.788 118.044 111.892 118.041C117.291 117.85 123.378 117.634 126.704 112.841C129.934 108.193 128.234 102.138 126.744 96.8313L126.704 96.6891C125.922 93.9537 124.879 90.1762 125.335 88.6783C125.726 87.3757 128.594 85.0962 130.68 83.4679L130.716 83.439C135.074 79.9292 140 75.9617 140 69.9862C140 64.0108 135.074 60.0433 130.716 56.5334L130.68 56.5045C128.594 54.8762 125.726 52.5967 125.335 51.2941C124.879 49.7962 125.922 46.0187 126.704 43.2833C128.268 37.9427 129.963 31.8205 126.704 27.1312C123.315 22.2466 117.058 22.0512 111.583 21.9209C109.106 21.8558 105.326 21.7255 104.283 20.944C103.238 20.2065 102.076 16.8015 101.236 14.3405C101.186 14.1934 101.137 14.0496 101.089 13.91C99.3296 8.50431 97.2439 2.38217 91.7039 0.49343C86.3316 -1.3176 81.2806 2.26698 76.8064 5.44226L76.7132 5.50837L76.677 5.53473C74.5274 7.09696 71.4258 9.35099 70 9.35099C68.6293 9.35099 65.6504 7.20839 63.5687 5.71102C63.4727 5.64201 63.3787 5.57437 63.2868 5.50837C58.8548 2.25192 53.771 -1.33019 48.2961 0.49343C42.8074 2.36467 40.7733 8.39122 38.9614 13.7596L38.9106 13.91C38.0633 16.3849 36.7598 20.1624 35.7169 20.944C34.6741 21.7255 30.8939 21.9209 28.4171 21.9209C28.3145 21.9246 28.2115 21.9282 28.1084 21.9319C22.7086 22.1229 16.6217 22.3381 13.2961 27.1312C10.0661 31.779 11.7662 37.8343 13.2562 43.1411L13.2961 43.2833C14.0782 46.0187 15.121 49.7962 14.6648 51.2941C14.2737 52.5967 11.406 54.8762 9.3203 56.5045L9.28436 56.5334C4.92632 60.0433 0 64.0108 0 69.9862C0 75.9617 4.92633 79.9292 9.28438 83.439L9.3203 83.4679C11.406 85.0962 14.2737 87.3757 14.6648 88.6783C15.121 90.1762 14.0782 93.9537 13.2961 96.6891C11.7318 102.03 10.0372 108.152 13.2961 112.841C16.6853 117.726 22.9423 117.921 28.4171 118.051C30.8939 118.117 34.6741 118.247 35.7169 119.028C36.7625 119.766 37.924 123.171 38.7636 125.632C38.8138 125.779 38.8628 125.923 38.9106 126.062C40.6704 131.468 42.7561 137.59 48.2961 139.479C53.6911 141.276 58.6431 137.761 63.0897 134.604L63.2868 134.464L63.3231 134.438C65.4727 132.875 68.5742 130.621 70 130.621C71.3707 130.621 74.3496 132.764 76.4314 134.261C76.5273 134.33 76.6213 134.398 76.7132 134.464ZM60.5822 85.3687C61.5009 86.2887 62.6647 86.718 63.8284 86.718C64.9922 86.718 66.1559 86.2887 67.0747 85.3687L91.5747 60.8353C93.3509 59.0567 93.3509 56.1127 91.5747 54.334C89.7984 52.5553 86.8584 52.5553 85.0822 54.334L63.8284 75.6167L54.8247 66.6007C53.0484 64.822 50.1084 64.822 48.3322 66.6007C46.5559 68.3793 46.5559 71.3233 48.3322 73.102L60.5822 85.3687Z" fill="#1C85E7"/>
</svg>
