<svg width="32" height="32" viewBox="0 0 32 32" fill="none" xmlns="http://www.w3.org/2000/svg">
<rect x="0.5" y="0.5" width="31" height="31" rx="3.5" stroke="#E5E5E5"/>
<path d="M9 25C8.45 25 7.97917 24.8042 7.5875 24.4125C7.19583 24.0208 7 23.55 7 23V9C7 8.45 7.19583 7.97917 7.5875 7.5875C7.97917 7.19583 8.45 7 9 7H23C23.55 7 24.0208 7.19583 24.4125 7.5875C24.8042 7.97917 25 8.45 25 9V11.5H23V9H9V23H23V20.5H25V23C25 23.55 24.8042 24.0208 24.4125 24.4125C24.0208 24.8042 23.55 25 23 25H9ZM17 21C16.45 21 15.9792 20.8042 15.5875 20.4125C15.1958 20.0208 15 19.55 15 19V13C15 12.45 15.1958 11.9792 15.5875 11.5875C15.9792 11.1958 16.45 11 17 11H24C24.55 11 25.0208 11.1958 25.4125 11.5875C25.8042 11.9792 26 12.45 26 13V19C26 19.55 25.8042 20.0208 25.4125 20.4125C25.0208 20.8042 24.55 21 24 21H17ZM24 19V13H17V19H24ZM20 17.5C20.4167 17.5 20.7708 17.3542 21.0625 17.0625C21.3542 16.7708 21.5 16.4167 21.5 16C21.5 15.5833 21.3542 15.2292 21.0625 14.9375C20.7708 14.6458 20.4167 14.5 20 14.5C19.5833 14.5 19.2292 14.6458 18.9375 14.9375C18.6458 15.2292 18.5 15.5833 18.5 16C18.5 16.4167 18.6458 16.7708 18.9375 17.0625C19.2292 17.3542 19.5833 17.5 20 17.5Z" fill="#969696"/>
</svg>
